<?xml version="1.0" encoding="UTF-8"?>
<svg id="Layer_1" data-name="Layer 1" xmlns="http://www.w3.org/2000/svg" viewBox="0 0 468.41 186.28">
  <defs>
    <style>
      .cls-1 {
        fill-rule: evenodd;
        stroke-linecap: round;
        stroke-linejoin: round;
      }

      .cls-1, .cls-2 {
        fill: #214ea2;
        stroke: #fff;
      }

      .cls-2 {
        stroke-miterlimit: 10;
      }
    </style>
  </defs>
  <path class="cls-2" d="M37.35,102.86c-7.69,0-12.07-4.38-12.07-12.2,0-14.72,1.86-21.35,1.86-45.48,0-5.44,0-9.81-4.9-9.81-3.18,0-6.63.66-9.81.66-6.76,0-11.93-3.45-11.93-10.87,0-8.35,5.97-10.21,13.26-10.21s15.38,1.06,23.34,1.06,15.91-1.19,24.13-1.19c6.36,0,12.2,2.39,12.2,9.81,0,9.41-4.64,11.14-11.14,11.14-3.58,0-7.56-.4-11-.4-4.77,0-4.77,5.04-4.77,8.62,0,22.67,2.12,30.76,2.12,47.2,0,7.29-3.58,11.67-11.27,11.67h-.02Z"/>
  <path class="cls-2" d="M139.44,52.48c0,4.24-.66,9.55-.66,13.79,0,18.03,1.46,23.73,1.46,28.11,0,5.7-4.91,8.35-9.94,8.35-8.62,0-8.75-7.56-11.8-7.56-1.86,0-5.7,7.56-16.04,7.56-16.44,0-24-14.85-24-29.57,0-25.46,12.46-39.64,36.06-39.64,13.79,0,24.93,4.77,24.93,18.96h0ZM107.88,85.09c10.34,0,13.39-13.26,13.39-21.21s-.13-13.52-9.55-13.52c-11.4,0-14.45,11.93-14.45,21.35,0,6.63,2.78,13.39,10.61,13.39h0Z"/>
  <path class="cls-2" d="M172.45,56.99c0,7.03-.93,13.92-.93,20.95,0,4.11.8,8.62.8,12.99,0,8.22-4.77,11.93-11.14,11.93-7.69,0-9.28-4.64-9.28-11.67,0-4.91.53-9.94.53-14.85,0-6.1-.8-12.07-.8-18.16,0-7.16,1.19-13.79,9.81-13.79s11,4.51,11,12.6h0Z"/>
  <path class="cls-2" d="M206.66,25.3c0,4.64-3.18,22.14-3.18,44.42,0,6.1.4,14.19,4.51,14.19,1.72,0,3.58-1.59,6.76-1.59,4.38,0,6.63,4.11,6.63,8.22,0,9.15-9.68,12.2-17.5,12.2-15.51,0-18.56-12.99-18.56-25.99,0-24.93.53-39.64.53-55.16,0-6.89,3.71-10.87,10.61-10.87,9.28,0,10.21,6.5,10.21,14.58h-.01Z"/>
  <path class="cls-2" d="M247.1,21.32c1.99,10.08,3.71,20.02,4.91,29.7.53,3.84,2.78,20.68,3.98,23.34.13.53.4,1.06,1.06,1.06,2.65,0,4.38-11.53,4.64-12.2,2.52-10.34,5.17-28.11,17.1-28.11,3.58,0,7.29,1.72,8.75,5.3,2.39,5.97,8.75,25.46,8.75,25.46.4,1.19,2.12,9.28,3.18,9.28,1.59,0,2.65-7.29,2.92-8.49,1.72-12.2,2.78-24.53,4.11-36.73.66-7.56,1.46-16.44,10.74-16.44,7.29,0,12.07,3.58,12.07,10.74,0,14.45-5.17,26.52-10.47,55.02-1.86,9.94-5.83,23.34-17.37,23.34-4.51,0-8.09-1.86-10.61-5.57-4.24-6.63-7.56-17.9-9.68-25.72-.4-1.06-1.72-7.03-2.92-7.03-.26,0-.66.53-.8.8-1.19,2.25-1.86,5.57-2.39,8.09-1.46,5.57-2.65,9.94-4.64,15.25-2.52,6.89-5.3,14.05-14.05,14.05-11.53,0-15.38-7.96-17.77-17.9-3.31-13.26-5.57-26.92-9.02-40.17-1.72-6.1-3.84-12.73-3.84-19.09,0-7.96,3.84-11.8,11.93-11.8,5.3,0,8.35,2.52,9.41,7.82h0Z"/>
  <path class="cls-2" d="M396.92,52.48c0,4.24-.66,9.55-.66,13.79,0,18.03,1.46,23.73,1.46,28.11,0,5.7-4.91,8.35-9.94,8.35-8.62,0-8.75-7.56-11.8-7.56-1.86,0-5.7,7.56-16.04,7.56-16.44,0-24-14.85-24-29.57,0-25.46,12.46-39.64,36.06-39.64,13.79,0,24.93,4.77,24.93,18.96h0ZM365.36,85.09c10.34,0,13.39-13.26,13.39-21.21s-.13-13.52-9.55-13.52c-11.4,0-14.45,11.93-14.45,21.35,0,6.63,2.78,13.39,10.61,13.39h0Z"/>
  <path class="cls-2" d="M467.41,100.33c-.05-1.62-.32-3.06-.32-4.7,0-6.63-1.11-13.31-1.11-20.21s1.72-13.26,1.72-19.89c0-18.16-12.99-22.54-28.77-22.54-21.74,0-33.68,14.72-33.68,35.8,0,16.18,10.21,29.96,27.18,29.96,5.83,0,11.67-1.72,16.18-5.44,0,2.43-.08,5.48-.37,7.37-2.66,10.3-19.93,14.17-31.55,15.57-16.04,1.94-34.25-2.41-52.24-8.34-9.9-3.29-20.03-5.99-30.33-6.85-10.65-.94-21.48-.04-32.43,3.81-10.3,3.73-24.45,10.5-31.43,23.12-7.01,12.49-6.74,30.53,11.72,56.55.48.75,1.42,1.28,2.43,1.25,1.69,0,2.85-1.05,2.93-2.46.73-24.62,17.21-31.51,40.42-32.19,12.8-.27,27.77,1.17,43.09,2.69,7.06.72,14.13,1.45,21.33,2.01,21.07,1.5,36.43-.47,47.81-4.8,8.69-3.31,14.93-8.01,19.36-13.37,4.26-5.33,6.53-11.43,7.64-17.33,1.14-6.85,1.08-12.02.52-18.33l-.1-1.67ZM435.9,81.78c-9.02,0-12.2-7.42-12.2-15.25,0-9.41,5.3-15.91,14.85-15.91s10.87,3.98,10.87,13.92c0,8.88-3.31,17.24-13.52,17.24Z"/>
  <path class="cls-1" d="M155.82,16.79c-1.35,1.05-1.94,2.13-2.44,3.61-.18.53-.27,1.35-.26,2.03,0,.66-.03,1.95-.14,2.57l-.55,2.48c-.03.09-.03.14-.05.23-.03.11-.06.14-.09.25-.07.21-.1.31-.17.51-.37,1.09-.63,2.6-.35,4.1.31,1.73,1.21,3.07,2.66,3.92,1.13.66,2.57.87,4.03.64,1.55-.24,3.21-1.05,4.54-2.15,1.43-1.18,1.92-2.41,3.79-3.27.77-.35,1.5-.46,2.26-.69,3.73-1.15,7.18-4.63,6.09-8.53-.57-2.04-2.28-3.34-4.01-4.02-1.59-.62-2.53-.48-4.01-.75-3.14-.56-3.61-2.29-6.77-2.4-1.42-.05-3.12.37-4.53,1.46"/>
  <path class="cls-1" d="M144.44,5.82c-1.99,1.71-2.51,6.05-1.83,8.64.95,3.62,4.64,5.89,7.37,5.16,2.58-.69,3.45-3.49,2.99-5.84-.16-.85-.43-1.65-.88-2.47-.84-1.51-2.23-3.45-3.41-4.59-1.15-1.1-2.77-2.17-4.24-.91"/>
  <path class="cls-1" d="M151.77,1.24c-1.18,1.1-.78,2.89-.17,4.51.56,1.48,1.78,3.83,2.8,5.06,1.57,1.88,4.12,3.07,6.25,2.28,3.97-1.46,3.48-7.72-.24-10.45-.89-.66-2.01-1.22-3.02-1.56l-1.06-.3c-1.26-.31-3.44-.58-4.56.46"/>
  <path class="cls-1" d="M166.43,4.17c-1.09.9-1.27,2.68-1.36,3.73-.09,1.07,0,2.91.28,4.12.36,1.55,1.22,3.07,2.54,3.92,2.08,1.32,4.34.6,5.55-1.63.19-.35.26-.56.38-.9.09-.23.08-.23.13-.48.03-.18.1-.29.13-.48.18-1.53.16-2.67-.58-4.2-.71-1.44-1.95-2.81-3.14-3.6-.99-.65-2.7-1.49-3.93-.47"/>
  <path class="cls-1" d="M140.32,19.8c-2.11,1.73-.59,8.44,3.8,10.07.31.11,1.13.38,1.41.41.17.02.33.04.5.06,2.76.27,5.11-1.6,4.52-4.61-.31-1.58-1.39-2.98-2.62-3.89-1.71-1.27-5.76-3.56-7.61-2.04"/>
</svg>